<svg width="227" height="240" viewBox="0 0 227 240" fill="none" xmlns="http://www.w3.org/2000/svg">
<path d="M112 48C112 50.7614 109.761 53 107 53C104.239 53 102 50.7614 102 48C102 45.2386 104.239 43 107 43C109.761 43 112 45.2386 112 48Z" fill="#004FFF"/>
<path d="M93 5C93 7.76142 90.7614 10 88 10C85.2386 10 83 7.76142 83 5C83 2.23858 85.2386 0 88 0C90.7614 0 93 2.23858 93 5Z" fill="#004FFF"/>
<path d="M177 16C177 19.3137 174.314 22 171 22C167.686 22 165 19.3137 165 16C165 12.6863 167.686 10 171 10C174.314 10 177 12.6863 177 16Z" fill="#004FFF"/>
<path d="M213 56C213 60.4183 209.418 64 205 64C200.582 64 197 60.4183 197 56C197 51.5817 200.582 48 205 48C209.418 48 213 51.5817 213 56Z" fill="#004FFF"/>
<path d="M210 115C210 117.209 208.209 119 206 119C203.791 119 202 117.209 202 115C202 112.791 203.791 111 206 111C208.209 111 210 112.791 210 115Z" fill="#004FFF"/>
<path d="M98 236C98 238.209 96.2091 240 94 240C91.7909 240 90 238.209 90 236C90 233.791 91.7909 232 94 232C96.2091 232 98 233.791 98 236Z" fill="#004FFF"/>
<path d="M75 190C75 192.209 73.2091 194 71 194C68.7909 194 67 192.209 67 190C67 187.791 68.7909 186 71 186C73.2091 186 75 187.791 75 190Z" fill="#004FFF"/>
<path d="M24 180C24 183.314 21.3137 186 18 186C14.6863 186 12 183.314 12 180C12 176.686 14.6863 174 18 174C21.3137 174 24 176.686 24 180Z" fill="#004FFF"/>
<path d="M26 118C26 119.657 24.6569 121 23 121C21.3431 121 20 119.657 20 118C20 116.343 21.3431 115 23 115C24.6569 115 26 116.343 26 118Z" fill="#004FFF"/>
<path d="M24 34C24 40.6274 18.6274 46 12 46C5.37258 46 0 40.6274 0 34C0 27.3726 5.37258 22 12 22C18.6274 22 24 27.3726 24 34Z" fill="#004FFF"/>
<path d="M54 59C54 60.6569 52.6569 62 51 62C49.3431 62 48 60.6569 48 59C48 57.3431 49.3431 56 51 56C52.6569 56 54 57.3431 54 59Z" fill="#004FFF"/>
<path d="M43 221C43 222.105 42.1046 223 41 223C39.8954 223 39 222.105 39 221C39 219.895 39.8954 219 41 219C42.1046 219 43 219.895 43 221Z" fill="#004FFF"/>
<path d="M175 164C175 167.314 172.314 170 169 170C165.686 170 163 167.314 163 164C163 160.686 165.686 158 169 158C172.314 158 175 160.686 175 164Z" fill="#004FFF"/>
<path d="M149 220C149 223.314 146.314 226 143 226C139.686 226 137 223.314 137 220C137 216.686 139.686 214 143 214C146.314 214 149 216.686 149 220Z" fill="#004FFF"/>
<path d="M227 157C227 159.761 224.761 162 222 162C219.239 162 217 159.761 217 157C217 154.239 219.239 152 222 152C224.761 152 227 154.239 227 157Z" fill="#004FFF"/>
<path d="M206 202C206 208.627 200.627 214 194 214C187.373 214 182 208.627 182 202C182 195.373 187.373 190 194 190C200.627 190 206 195.373 206 202Z" fill="#004FFF"/>
</svg>
