<svg width="147" height="119" viewBox="0 0 147 119" fill="none" xmlns="http://www.w3.org/2000/svg">
<path d="M126 1L138 16.6V49H126V1Z" fill="#F2F4F7"/>
<path fill-rule="evenodd" clip-rule="evenodd" d="M125.678 0.0533238C126.083 -0.0845552 126.532 0.0509591 126.793 0.390351L138.793 15.9904C138.927 16.1652 139 16.3795 139 16.6001V49.0001C139 49.5523 138.552 50.0001 138 50.0001H126C125.448 50.0001 125 49.5523 125 49.0001V1.00006C125 0.571874 125.273 0.191203 125.678 0.0533238ZM127 3.94018V48.0001H137V16.9402L127 3.94018Z" fill="#004FFF"/>
<path d="M20 1L8 16.6V49H20V1Z" fill="#F2F4F7"/>
<path fill-rule="evenodd" clip-rule="evenodd" d="M20.322 0.0533238C19.9166 -0.0845552 19.4684 0.0509591 19.2074 0.390351L7.20738 15.9904C7.07291 16.1652 7 16.3795 7 16.6001V49.0001C7 49.5523 7.44771 50.0001 8 50.0001H20C20.5523 50.0001 21 49.5523 21 49.0001V1.00006C21 0.571874 20.7274 0.191203 20.322 0.0533238ZM19 3.94018V48.0001H9V16.9402L19 3.94018Z" fill="#004FFF"/>
<path d="M130 59.5C130 54.8056 133.806 51 138.5 51C143.194 51 147 54.8056 147 59.5V62.5C147 67.1944 143.194 71 138.5 71C133.806 71 130 67.1944 130 62.5V59.5Z" fill="#F2F4F7"/>
<path fill-rule="evenodd" clip-rule="evenodd" d="M145 62.5V59.5C145 55.9101 142.09 53 138.5 53C134.91 53 132 55.9101 132 59.5V62.5C132 66.0899 134.91 69 138.5 69C142.09 69 145 66.0899 145 62.5ZM138.5 51C133.806 51 130 54.8056 130 59.5V62.5C130 67.1944 133.806 71 138.5 71C143.194 71 147 67.1944 147 62.5V59.5C147 54.8056 143.194 51 138.5 51Z" fill="#004FFF"/>
<path d="M0 59.5C0 54.8056 3.80558 51 8.5 51C13.1944 51 17 54.8056 17 59.5V62.5C17 67.1944 13.1944 71 8.5 71C3.80558 71 0 67.1944 0 62.5V59.5Z" fill="#F2F4F7"/>
<path fill-rule="evenodd" clip-rule="evenodd" d="M15 62.5V59.5C15 55.9101 12.0899 53 8.5 53C4.91015 53 2 55.9101 2 59.5V62.5C2 66.0899 4.91015 69 8.5 69C12.0899 69 15 66.0899 15 62.5ZM8.5 51C3.80558 51 0 54.8056 0 59.5V62.5C0 67.1944 3.80558 71 8.5 71C13.1944 71 17 67.1944 17 62.5V59.5C17 54.8056 13.1944 51 8.5 51Z" fill="#004FFF"/>
<path d="M110 57C110 48.1634 117.163 41 126 41C134.837 41 142 48.1634 142 57V65C142 73.8366 134.837 81 126 81C117.163 81 110 73.8366 110 65V57Z" fill="#F2F4F7"/>
<path fill-rule="evenodd" clip-rule="evenodd" d="M140 65V57C140 49.268 133.732 43 126 43C118.268 43 112 49.268 112 57V65C112 72.732 118.268 79 126 79C133.732 79 140 72.732 140 65ZM126 41C117.163 41 110 48.1634 110 57V65C110 73.8366 117.163 81 126 81C134.837 81 142 73.8366 142 65V57C142 48.1634 134.837 41 126 41Z" fill="#004FFF"/>
<path d="M49 19C49 10.1634 56.1634 3 65 3H81C89.8366 3 97 10.1634 97 19V27C97 35.8366 89.8366 43 81 43H65C56.1634 43 49 35.8366 49 27V19Z" fill="#F2F4F7"/>
<path fill-rule="evenodd" clip-rule="evenodd" d="M81 5H65C57.268 5 51 11.268 51 19V27C51 34.732 57.268 41 65 41H81C88.732 41 95 34.732 95 27V19C95 11.268 88.732 5 81 5ZM65 3C56.1634 3 49 10.1634 49 19V27C49 35.8366 56.1634 43 65 43H81C89.8366 43 97 35.8366 97 27V19C97 10.1634 89.8366 3 81 3H65Z" fill="#004FFF"/>
<path d="M45 95C45 86.1634 52.1634 79 61 79H85C93.8366 79 101 86.1634 101 95V103C101 111.837 93.8366 119 85 119H61C52.1634 119 45 111.837 45 103V95Z" fill="#F2F4F7"/>
<path fill-rule="evenodd" clip-rule="evenodd" d="M85 81H61C53.268 81 47 87.268 47 95V103C47 110.732 53.268 117 61 117H85C92.732 117 99 110.732 99 103V95C99 87.268 92.732 81 85 81ZM61 79C52.1634 79 45 86.1634 45 95V103C45 111.837 52.1634 119 61 119H85C93.8366 119 101 111.837 101 103V95C101 86.1634 93.8366 79 85 79H61Z" fill="#004FFF"/>
<path d="M5 57C5 48.1634 12.1634 41 21 41C29.8366 41 37 48.1634 37 57V65C37 73.8366 29.8366 81 21 81C12.1634 81 5 73.8366 5 65V57Z" fill="#F2F4F7"/>
<path fill-rule="evenodd" clip-rule="evenodd" d="M35 65V57C35 49.268 28.732 43 21 43C13.268 43 7 49.268 7 57V65C7 72.732 13.268 79 21 79C28.732 79 35 72.732 35 65ZM21 41C12.1634 41 5 48.1634 5 57V65C5 73.8366 12.1634 81 21 81C29.8366 81 37 73.8366 37 65V57C37 48.1634 29.8366 41 21 41Z" fill="#004FFF"/>
<path d="M131 61C131 88.6142 105.033 111 73 111C40.9675 111 15 88.6142 15 61C15 33.3858 40.9675 11 73 11C105.033 11 131 33.3858 131 61Z" fill="#F2F4F7"/>
<path fill-rule="evenodd" clip-rule="evenodd" d="M73 109C104.217 109 129 87.2414 129 61C129 34.7586 104.217 13 73 13C41.7832 13 17 34.7586 17 61C17 87.2414 41.7832 109 73 109ZM73 111C105.033 111 131 88.6142 131 61C131 33.3858 105.033 11 73 11C40.9675 11 15 33.3858 15 61C15 88.6142 40.9675 111 73 111Z" fill="#004FFF"/>
<path d="M116 59.8C116 83.6587 96.3005 103 72 103C47.6995 103 28 83.6587 28 59.8C28 35.9413 47.6995 33 72 33C96.3005 33 116 35.9413 116 59.8Z" fill="#08090D"/>
<path d="M79 20.8C79 24.7765 75.866 28 72 28C68.134 28 65 24.7765 65 20.8C65 16.8235 68.134 16 72 16C75.866 16 79 16.8235 79 20.8Z" fill="#004FFF"/>
<path d="M80 82.8C80 86.7765 76.4183 90 72 90C67.5817 90 64 86.7765 64 82.8C64 78.8235 67.5817 78 72 78C76.4183 78 80 78.8235 80 82.8Z" fill="#004FFF"/>
<path d="M95.3923 26.4641C93.7355 29.3339 90.0659 30.3171 87.1962 28.6603C84.3264 27.0034 83.3431 23.3339 85 20.4641C86.6569 17.5943 89.3264 18.3431 92.1962 20C95.0659 21.6569 97.0492 23.5943 95.3923 26.4641Z" fill="#004FFF"/>
<path d="M59.3923 21.4641C61.0492 24.3339 60.0659 28.0034 57.1962 29.6603C54.3264 31.3171 50.6569 30.3339 49 27.4641C47.3431 24.5943 49.3264 22.6569 52.1962 21C55.0659 19.3431 57.7355 18.5943 59.3923 21.4641Z" fill="#004FFF"/>
<path d="M65 56C65 62.6274 60.5228 68 55 68C49.4772 68 45 62.6274 45 56C45 49.3726 49.4772 44 55 44C60.5228 44 65 49.3726 65 56Z" fill="#004FFF"/>
<path d="M64 54C64 59.5228 60.4183 64 56 64C51.5817 64 48 59.5228 48 54C48 48.4772 51.5817 44 56 44C60.4183 44 64 48.4772 64 54Z" fill="#F2F4F7"/>
<path d="M100 56C100 62.6274 95.5228 68 90 68C84.4772 68 80 62.6274 80 56C80 49.3726 84.4772 44 90 44C95.5228 44 100 49.3726 100 56Z" fill="#004FFF"/>
<path d="M99 54C99 59.5228 95.4183 64 91 64C86.5817 64 83 59.5228 83 54C83 48.4772 86.5817 44 91 44C95.4183 44 99 48.4772 99 54Z" fill="#F2F4F7"/>
</svg>
